<svg width="533" height="533" viewBox="0 0 533 533" fill="none" xmlns="http://www.w3.org/2000/svg">
<g clip-path="url(#clip0_3192_18766)">
<mask id="mask0_3192_18766" style="mask-type:luminance" maskUnits="userSpaceOnUse" x="0" y="0" width="533" height="533">
<path d="M0 533H533V0H0V533Z" fill="white"/>
</mask>
<g mask="url(#mask0_3192_18766)">
<path d="M533.3 266.7C533.3 413.9 413.9 533.3 266.7 533.3C119.4 533.3 0 413.9 0 266.7C0 119.4 119.4 -0.000183105 266.7 -0.000183105C413.9 -0.000183105 533.3 119.4 533.3 266.7Z" fill="url(#paint0_linear_3192_18766)"/>
<path d="M106 241.639C106 204.278 124.599 185.597 161.796 185.597H372.204C409.401 185.597 428 204.278 428 241.639V339.514C428 376.875 409.401 395.555 372.204 395.555H189.626L133.965 451.597V395.555C115.322 395.555 106 386.238 106 367.602V241.639Z" fill="white"/>
</g>
<path d="M58 329.874V337.461C58 355.624 72.038 371.488 90.2183 371.948C109.089 372.408 124.508 357.464 124.508 338.841V251.244C124.508 233.081 110.47 217.217 92.2894 216.757C73.4187 216.298 58 231.242 58 249.865V251.474C58 279.164 58.0038 272.283 58.0013 293.224C57.9992 311.65 58.001 300.254 58 329.874Z" stroke="#333333" stroke-width="14"/>
<path d="M409.492 329.874V337.461C409.492 355.624 423.53 371.488 441.71 371.948C460.581 372.408 476 357.464 476 338.841V251.244C476 233.081 461.962 217.217 443.782 216.757C424.911 216.298 409.492 231.242 409.492 249.865V251.474C409.492 279.164 409.497 272.986 409.494 293.224C409.492 312.353 409.493 300.254 409.492 329.874Z" stroke="#333333" stroke-width="14"/>
<path d="M92 216.606C97.5 174 110.418 146.359 143.459 113.459C176.358 80.4185 221.068 62.0002 267.747 62.0002C314.285 62.0002 358.994 80.4185 392.035 113.459C424.935 146.359 436 169.5 443.494 216.606" stroke="#333333" stroke-width="14" stroke-miterlimit="10"/>
<path d="M246.8 263.461C246.8 277.744 235.428 289.324 221.4 289.324C207.372 289.324 196 277.744 196 263.461C196 249.177 207.372 237.597 221.4 237.597C235.428 237.597 246.8 249.177 246.8 263.461Z" fill="#214466"/>
<path d="M228.604 259.704C228.604 267.344 222.521 273.537 215.018 273.537C207.515 273.537 201.433 267.344 201.433 259.704C201.433 252.064 207.515 245.87 215.018 245.87C222.521 245.87 228.604 252.064 228.604 259.704Z" fill="white"/>
<path d="M341 263.461C341 277.744 329.628 289.324 315.6 289.324C301.572 289.324 290.2 277.744 290.2 263.461C290.2 249.177 301.572 237.597 315.6 237.597C329.628 237.597 341 249.177 341 263.461Z" fill="#214466"/>
<path d="M324.613 259.704C324.613 267.344 318.531 273.537 311.028 273.537C303.524 273.537 297.442 267.344 297.442 259.704C297.442 252.064 303.524 245.87 311.028 245.87C318.531 245.87 324.613 252.064 324.613 259.704Z" fill="white"/>
<path d="M249.969 330.413C249.969 329.392 250.779 328.564 251.778 328.564H290.644C291.643 328.564 292.453 329.392 292.453 330.413C292.453 342.416 283.16 352.597 271.211 352.597C259.262 352.597 249.969 342.416 249.969 330.413Z" fill="#0D2F50"/>
</g>
<defs>
<linearGradient id="paint0_linear_3192_18766" x1="266.65" y1="-0.000183105" x2="266.65" y2="533.3" gradientUnits="userSpaceOnUse">
<stop stop-color="#FFB12A"/>
<stop offset="1" stop-color="#DB741D"/>
</linearGradient>
<clipPath id="clip0_3192_18766">
<rect width="533" height="533" fill="white" transform="matrix(1 0 0 -1 0 533)"/>
</clipPath>
</defs>
</svg>
